<svg id="Layer_1" data-name="Layer 1" xmlns="http://www.w3.org/2000/svg" viewBox="0 0 21 22"><title>ICONO</title><path d="M14.56,4.42h5.68l.75.73V18.31l-.75.73H.77L0,18.31V5.15l.75-.73H6.45L7.73,3.18,8.26,3h4.49l.53.21Zm-13,13.15h18V5.88H14.25l-.53-.21L12.44,4.42H8.57L7.29,5.67l-.53.21H1.52ZM3.77,7.35a.76.76,0,0,0-.53.21.72.72,0,0,0,0,1,.76.76,0,0,0,1.06,0,.72.72,0,0,0,0-1A.76.76,0,0,0,3.77,7.35Zm6.74,1.46a3,3,0,0,1,2.12.86,2.87,2.87,0,0,1,0,4.13,3,3,0,0,1-4.24,0,2.87,2.87,0,0,1,0-4.13A3,3,0,0,1,10.51,8.81Zm0-1.46A4.55,4.55,0,0,0,7.33,8.63a4.31,4.31,0,0,0,0,6.2,4.57,4.57,0,0,0,6.36,0,4.31,4.31,0,0,0,0-6.2A4.55,4.55,0,0,0,10.51,7.35Z"/></svg>