<svg width="17" height="15" viewBox="0 0 17 15" fill="none" xmlns="http://www.w3.org/2000/svg">
<path fill-rule="evenodd" clip-rule="evenodd" d="M11.1978 1.31502H15.5733L16.1501 1.94958V13.3717L15.5733 14.0063H0.576791L0 13.3717V1.94958L0.576791 1.31502H4.95232L5.93633 0.23119L6.3447 0.0458984H9.80544L10.2138 0.23119L11.1978 1.31502ZM1.15358 12.7371H14.9966V2.58415H10.959L10.5507 2.39885L9.56665 1.31502H6.58349L5.59948 2.39885L5.19112 2.58415H1.15358V12.7371ZM2.88395 3.85327C2.73098 3.85327 2.58427 3.92013 2.4761 4.03913C2.36793 4.15813 2.30716 4.31954 2.30716 4.48783C2.30716 4.65613 2.36793 4.81753 2.4761 4.93653C2.58427 5.05554 2.73098 5.12239 2.88395 5.12239C3.03693 5.12239 3.18364 5.05554 3.29181 4.93653C3.39997 4.81753 3.46074 4.65613 3.46074 4.48783C3.46074 4.31954 3.39997 4.15813 3.29181 4.03913C3.18364 3.92013 3.03693 3.85327 2.88395 3.85327ZM8.07507 5.12239C8.68697 5.12239 9.2738 5.38981 9.70648 5.86583C10.1392 6.34184 10.3822 6.98746 10.3822 7.66064C10.3822 8.33383 10.1392 8.97944 9.70648 9.45545C9.2738 9.93147 8.68697 10.1989 8.07507 10.1989C7.46317 10.1989 6.87634 9.93147 6.44366 9.45545C6.01098 8.97944 5.76791 8.33383 5.76791 7.66064C5.76791 6.98746 6.01098 6.34184 6.44366 5.86583C6.87634 5.38981 7.46317 5.12239 8.07507 5.12239ZM8.07507 3.85327C7.15722 3.85327 6.27697 4.2544 5.62795 4.96842C4.97894 5.68244 4.61433 6.65086 4.61433 7.66064C4.61433 8.67042 4.97894 9.63884 5.62795 10.3529C6.27697 11.0669 7.15722 11.468 8.07507 11.468C8.99292 11.468 9.87317 11.0669 10.5222 10.3529C11.1712 9.63884 11.5358 8.67042 11.5358 7.66064C11.5358 6.65086 11.1712 5.68244 10.5222 4.96842C9.87317 4.2544 8.99292 3.85327 8.07507 3.85327Z" fill="#333333"/>
</svg>
