<svg width="20" height="22" viewBox="0 0 20 22" fill="none" xmlns="http://www.w3.org/2000/svg">
<path d="M17.3859 12.7958C17.6756 12.7958 17.9534 12.6888 18.1583 12.4984C18.3632 12.308 18.4783 12.0497 18.4783 11.7805V9.74986C18.4783 9.48059 18.3632 9.22234 18.1583 9.03194C17.9534 8.84153 17.6756 8.73456 17.3859 8.73456H9.73913H2.09239C1.80267 8.73456 1.52482 8.84153 1.31995 9.03194C1.11509 9.22234 1 9.48059 1 9.74986V11.7805C1 12.0497 1.11509 12.308 1.31995 12.4984C1.52482 12.6888 1.80267 12.7958 2.09239 12.7958M17.3859 12.7958H2.09239M17.3859 12.7958L15.2011 20.9181H4.27717L2.09239 12.7958M9.69894 5.65822C9.69894 5.65822 6.33983 6.9842 4.58108 5.62268C2.82233 4.26015 3.22324 1.65795 3.22324 1.65795C3.22324 1.65795 6.58234 1.34727 8.34219 2.70878C10.1009 4.07131 9.69894 5.65822 9.69894 5.65822ZM9.77846 5.65822C9.77846 5.65822 13.1376 6.9842 14.8963 5.62268C16.6551 4.26015 16.2542 1.65795 16.2542 1.65795C16.2542 1.65795 12.895 1.34727 11.1363 2.70878C9.37755 4.07131 9.77846 5.65822 9.77846 5.65822Z" stroke="#333333" stroke-width="1.3" stroke-linecap="round" stroke-linejoin="round"/>
</svg>
