<svg width="21" height="22" viewBox="0 0 21 22" fill="none" xmlns="http://www.w3.org/2000/svg">
<path d="M10.5 2.52832C9.63471 2.52832 8.78885 2.77643 8.06938 3.24127C7.34992 3.70612 6.78916 4.36682 6.45803 5.13982C6.12689 5.91283 6.04025 6.76343 6.20906 7.58405C6.37787 8.40466 6.79455 9.15845 7.40641 9.75009C8.01826 10.3417 8.79781 10.7446 9.64648 10.9079C10.4951 11.0711 11.3748 10.9873 12.1742 10.6671C12.9737 10.3469 13.6569 9.80471 14.1377 9.10902C14.6184 8.41334 14.875 7.59543 14.875 6.75873C14.875 5.63676 14.4141 4.56074 13.5936 3.76738C12.7731 2.97402 11.6603 2.52832 10.5 2.52832ZM10.5 9.29698C9.98082 9.29698 9.47331 9.14811 9.04163 8.86921C8.60995 8.5903 8.2735 8.19388 8.07482 7.73008C7.87614 7.26627 7.82415 6.75592 7.92544 6.26355C8.02672 5.77117 8.27673 5.3189 8.64384 4.96392C9.01096 4.60894 9.47869 4.3672 9.98789 4.26926C10.4971 4.17132 11.0249 4.22158 11.5045 4.4137C11.9842 4.60581 12.3942 4.93115 12.6826 5.34856C12.971 5.76597 13.125 6.25671 13.125 6.75873C13.125 7.43192 12.8484 8.07753 12.3562 8.55354C11.8639 9.02956 11.1962 9.29698 10.5 9.29698ZM18.375 18.6039V17.7578C18.375 16.187 17.7297 14.6806 16.581 13.5699C15.4324 12.4592 13.8745 11.8352 12.25 11.8352H8.75C7.12555 11.8352 5.56763 12.4592 4.41897 13.5699C3.27031 14.6806 2.625 16.187 2.625 17.7578V18.6039H4.375V17.7578C4.375 16.6358 4.83594 15.5598 5.65641 14.7665C6.47688 13.9731 7.58968 13.5274 8.75 13.5274H12.25C13.4103 13.5274 14.5231 13.9731 15.3436 14.7665C16.1641 15.5598 16.625 16.6358 16.625 17.7578V18.6039H18.375Z" fill="#333333" fill-opacity="0.85"/>
</svg>
