<?xml version="1.0" encoding="utf-8"?>
<!-- Generator: Adobe Illustrator 21.0.2, SVG Export Plug-In . SVG Version: 6.00 Build 0)  -->
<svg version="1.1" id="Layer_1" xmlns="http://www.w3.org/2000/svg" xmlns:xlink="http://www.w3.org/1999/xlink" x="0px" y="0px"
	 viewBox="0 0 256 256" style="enable-background:new 0 0 256 256;" xml:space="preserve">
<style type="text/css">
	.st0{fill:#67A16E;}
</style>
<desc>Created with Fabric.js 1.7.22</desc>
<g transform="translate(-175.05 -175.05000000000004) scale(3.89 3.89)">
	<g id="XMLID_1_">
		<g>
			<path class="st0" d="M104.5,56.1c2.8,2.8,4.4,6.6,4.4,10.5c0,4-1.6,7.7-4.4,10.5l-26.6,26.6L51.3,77.2c-2.8-2.8-4.4-6.6-4.4-10.5
				c0-4,1.6-7.7,4.4-10.5s6.6-4.4,10.5-4.4c4,0,7.7,1.6,10.5,4.4l5.5,5.5l5.5-5.5c2.8-2.8,6.6-4.4,10.5-4.4
				C97.9,51.7,101.7,53.3,104.5,56.1z"/>
			<path class="st0" d="M105.5,55.1c3.1,3.1,4.8,7.2,4.8,11.6c0,4.4-1.7,8.5-4.8,11.6l-27.6,27.6L50.3,78.2
				c-3.1-3.1-4.8-7.2-4.8-11.6c0-4.4,1.7-8.5,4.8-11.6c3.1-3.1,7.2-4.8,11.6-4.8c4.4,0,8.5,1.7,11.6,4.8l4.5,4.5l4.5-4.5
				c3.1-3.1,7.2-4.8,11.6-4.8C98.3,50.3,102.4,52,105.5,55.1z M108.9,66.6c0-4-1.6-7.7-4.4-10.5s-6.6-4.4-10.5-4.4
				c-4,0-7.7,1.6-10.5,4.4l-5.5,5.5l-5.5-5.5c-2.8-2.8-6.6-4.4-10.5-4.4c-4,0-7.7,1.6-10.5,4.4s-4.4,6.6-4.4,10.5
				c0,4,1.6,7.7,4.4,10.5l26.6,26.6l26.6-26.6C107.3,74.4,108.9,70.6,108.9,66.6z"/>
		</g>
		<g>
		</g>
	</g>
</g>
</svg>
