<svg id="Layer_1" data-name="Layer 1" xmlns="http://www.w3.org/2000/svg" viewBox="0 0 21 22"><defs><style>.cls-1{fill:none;stroke:#000;stroke-linecap:round;stroke-linejoin:round;stroke-width:1.3px;}</style></defs><title>ICONO</title><path class="cls-1" d="M18.68,12.63a1.22,1.22,0,0,0,.83-.32,1,1,0,0,0,.34-.77V9.37a1,1,0,0,0-.34-.77,1.21,1.21,0,0,0-.83-.32H2.32a1.21,1.21,0,0,0-.83.32,1,1,0,0,0-.34.77v2.17a1,1,0,0,0,.34.77,1.22,1.22,0,0,0,.83.32m16.36,0H2.32m16.36,0-2.34,8.69H4.66L2.32,12.63M10.46,5S6.86,6.41,5,5,3.53.72,3.53.72,7.12.38,9,1.84A3.2,3.2,0,0,1,10.46,5Zm.09,0S14.14,6.41,16,5,17.47.72,17.47.72,13.88.38,12,1.84A3.2,3.2,0,0,0,10.54,5Z"/></svg>