<svg id="Layer_1" data-name="Layer 1" xmlns="http://www.w3.org/2000/svg" viewBox="0 0 21 22"><defs><style>.cls-1{fill-opacity:0.85;}</style></defs><title>ICONO</title><path class="cls-1" d="M10.5,0A5.86,5.86,0,0,0,7.26,1a5.76,5.76,0,0,0-.88,8.91,5.86,5.86,0,0,0,9-.88,5.76,5.76,0,0,0-.73-7.31A5.85,5.85,0,0,0,10.5,0Zm0,9.26a3.52,3.52,0,0,1-1.94-.59,3.47,3.47,0,0,1,1.26-6.3,3.51,3.51,0,0,1,3.59,1.48A3.45,3.45,0,0,1,13,8.25,3.51,3.51,0,0,1,10.5,9.26ZM21,22V20.84a8.08,8.08,0,0,0-2.39-5.73,8.2,8.2,0,0,0-5.77-2.37H8.17a8.2,8.2,0,0,0-5.77,2.37A8.08,8.08,0,0,0,0,20.84V22H2.33V20.84A5.77,5.77,0,0,1,4,16.75a5.85,5.85,0,0,1,4.12-1.7h4.67A5.85,5.85,0,0,1,17,16.75a5.77,5.77,0,0,1,1.71,4.09V22Z"/></svg>